<mxfile host="app.diagrams.net" modified="2023-04-24T06:46:42.182Z" agent="5.0 (Windows NT 10.0; Win64; x64) AppleWebKit/537.36 (KHTML, like Gecko) Chrome/112.0.0.0 Safari/537.36 Edg/112.0.1722.58" etag="jfcYeNPq8d58ruJzQDuM" version="21.0.6" type="github">
  <diagram id="6a731a19-8d31-9384-78a2-239565b7b9f0" name="Page-1">
    <mxGraphModel dx="3187" dy="924" grid="1" gridSize="10" guides="1" tooltips="1" connect="1" arrows="1" fold="1" page="1" pageScale="1" pageWidth="1169" pageHeight="827" background="none" math="0" shadow="0">
      <root>
        <mxCell id="0" />
        <mxCell id="1" parent="0" />
        <mxCell id="56" value="Yêu cầu giá (CƯỚI NHA)" style="strokeColor=#BAC8D3;fillColor=#23445D;fontSize=24;strokeWidth=2;fontFamily=Helvetica;html=1;fontColor=#FFFFFF;fontStyle=0;spacingBottom=8;spacingRight=0;spacingLeft=83;" parent="1" vertex="1">
          <mxGeometry x="154" y="850.5" width="1526" height="59.5" as="geometry" />
        </mxCell>
        <mxCell id="57" value="End-user&lt;br&gt;" style="strokeColor=#BAC8D3;fillColor=#23445D;fontSize=24;strokeWidth=2;horizontal=0;fontFamily=Helvetica;html=1;fontColor=#FFFFFF;fontStyle=0" parent="1" vertex="1">
          <mxGeometry x="154" y="910" width="96" height="170" as="geometry" />
        </mxCell>
        <mxCell id="59" value="v 2.0" style="strokeColor=#BAC8D3;fillColor=#5d7f99;fontSize=19;strokeWidth=2;fontFamily=Helvetica;html=1;labelBackgroundColor=none;fontColor=#FFFFFF;" parent="1" vertex="1">
          <mxGeometry x="154" y="850.5" width="96" height="59.5" as="geometry" />
        </mxCell>
        <mxCell id="64" value="Admin" style="strokeColor=#BAC8D3;fillColor=#23445D;fontSize=24;strokeWidth=2;horizontal=0;fontFamily=Helvetica;html=1;fontColor=#FFFFFF;fontStyle=0" parent="1" vertex="1">
          <mxGeometry x="154" y="1080.25" width="96" height="179.75" as="geometry" />
        </mxCell>
        <mxCell id="67" value="Vendor" style="strokeColor=#BAC8D3;fillColor=#23445D;fontSize=24;strokeWidth=2;horizontal=0;fontFamily=Helvetica;html=1;fontColor=#FFFFFF;fontStyle=0" parent="1" vertex="1">
          <mxGeometry x="154" y="1260" width="96" height="190" as="geometry" />
        </mxCell>
        <mxCell id="68" value="" style="strokeColor=#FFFFFF;fillColor=#BAC8D3;fontSize=18;strokeWidth=2;fontFamily=Helvetica;html=1;opacity=60;" parent="1" vertex="1">
          <mxGeometry x="250" y="910" width="1430" height="540" as="geometry" />
        </mxCell>
        <mxCell id="90" value="&lt;font style=&quot;font-size: 16px;&quot; color=&quot;#ffffff&quot;&gt;Gửi thông tin&lt;/font&gt;" style="rounded=1;fillColor=#23445D;strokeColor=none;strokeWidth=2;fontFamily=Helvetica;html=1;gradientColor=none;" parent="1" vertex="1">
          <mxGeometry x="290" y="950" width="170" height="90" as="geometry" />
        </mxCell>
        <mxCell id="122" value="" style="edgeStyle=elbowEdgeStyle;elbow=horizontal;strokeWidth=3;strokeColor=#0C343D;fontFamily=Helvetica;html=1;" parent="1" target="98" edge="1">
          <mxGeometry x="6.448979591836746" y="830.5" width="131.97278911564624" height="100" as="geometry">
            <mxPoint x="837.0047619047614" y="980.5" as="sourcePoint" />
            <mxPoint x="138.421768707483" y="830.5" as="targetPoint" />
          </mxGeometry>
        </mxCell>
        <mxCell id="tPd3ghojG1a1pQ2xDTs8-152" value="" style="edgeStyle=elbowEdgeStyle;elbow=horizontal;strokeWidth=3;strokeColor=#0C343D;fontFamily=Helvetica;html=1;exitX=1;exitY=0.5;exitDx=0;exitDy=0;entryX=0;entryY=0.5;entryDx=0;entryDy=0;" edge="1" parent="1" source="90" target="tPd3ghojG1a1pQ2xDTs8-153">
          <mxGeometry x="-356.55102040816337" y="1005" width="131.97278911564624" height="100" as="geometry">
            <mxPoint x="480" y="1155.5" as="sourcePoint" />
            <mxPoint x="1010" y="1155.5" as="targetPoint" />
          </mxGeometry>
        </mxCell>
        <mxCell id="tPd3ghojG1a1pQ2xDTs8-153" value="&lt;font color=&quot;#ffffff&quot;&gt;&lt;span style=&quot;font-size: 16px;&quot;&gt;Gửi mail thông &lt;br&gt;báo cho admin&lt;/span&gt;&lt;/font&gt;" style="rounded=1;fillColor=#23445D;strokeColor=none;strokeWidth=2;fontFamily=Helvetica;html=1;gradientColor=none;" vertex="1" parent="1">
          <mxGeometry x="560" y="1125.1200000000001" width="170" height="90" as="geometry" />
        </mxCell>
        <mxCell id="tPd3ghojG1a1pQ2xDTs8-154" value="&lt;font color=&quot;#ffffff&quot;&gt;&lt;span class=&quot;custom-cursor-default-hover&quot; style=&quot;font-size: 16px;&quot;&gt;Nhận thông tin&lt;/span&gt;&lt;/font&gt;" style="rounded=1;fillColor=#23445D;strokeColor=none;strokeWidth=2;fontFamily=Helvetica;html=1;gradientColor=none;" vertex="1" parent="1">
          <mxGeometry x="850" y="1125.1200000000001" width="170" height="90" as="geometry" />
        </mxCell>
        <mxCell id="tPd3ghojG1a1pQ2xDTs8-156" value="" style="edgeStyle=elbowEdgeStyle;elbow=horizontal;strokeWidth=3;strokeColor=#0C343D;fontFamily=Helvetica;html=1;exitX=1;exitY=0.5;exitDx=0;exitDy=0;entryX=0;entryY=0.5;entryDx=0;entryDy=0;" edge="1" parent="1" source="tPd3ghojG1a1pQ2xDTs8-161" target="tPd3ghojG1a1pQ2xDTs8-163">
          <mxGeometry x="483.44897959183663" y="1370" width="131.97278911564624" height="100" as="geometry">
            <mxPoint x="1300" y="1360" as="sourcePoint" />
            <mxPoint x="1400" y="1535" as="targetPoint" />
          </mxGeometry>
        </mxCell>
        <mxCell id="tPd3ghojG1a1pQ2xDTs8-158" value="" style="edgeStyle=elbowEdgeStyle;elbow=horizontal;strokeWidth=3;strokeColor=#0C343D;fontFamily=Helvetica;html=1;exitX=1;exitY=0.5;exitDx=0;exitDy=0;entryX=0;entryY=0.5;entryDx=0;entryDy=0;" edge="1" parent="1" target="tPd3ghojG1a1pQ2xDTs8-154">
          <mxGeometry x="-86.55102040816337" y="1180" width="131.97278911564624" height="100" as="geometry">
            <mxPoint x="730" y="1170" as="sourcePoint" />
            <mxPoint x="830" y="1345" as="targetPoint" />
          </mxGeometry>
        </mxCell>
        <mxCell id="tPd3ghojG1a1pQ2xDTs8-161" value="&lt;font color=&quot;#ffffff&quot;&gt;&lt;span style=&quot;font-size: 16px;&quot;&gt;Gửi mail thông&lt;br&gt;&amp;nbsp;báo cho vendor&lt;/span&gt;&lt;/font&gt;" style="rounded=1;fillColor=#23445D;strokeColor=none;strokeWidth=2;fontFamily=Helvetica;html=1;gradientColor=none;" vertex="1" parent="1">
          <mxGeometry x="1150" y="1310" width="170" height="90" as="geometry" />
        </mxCell>
        <mxCell id="tPd3ghojG1a1pQ2xDTs8-162" value="" style="edgeStyle=elbowEdgeStyle;elbow=horizontal;strokeWidth=3;strokeColor=#0C343D;fontFamily=Helvetica;html=1;entryX=0.5;entryY=0;entryDx=0;entryDy=0;exitX=0.5;exitY=1;exitDx=0;exitDy=0;" edge="1" parent="1" source="tPd3ghojG1a1pQ2xDTs8-166" target="tPd3ghojG1a1pQ2xDTs8-161">
          <mxGeometry x="593.4489795918366" y="1251" width="131.97278911564624" height="100" as="geometry">
            <mxPoint x="1215" y="1215" as="sourcePoint" />
            <mxPoint x="1510" y="1416" as="targetPoint" />
          </mxGeometry>
        </mxCell>
        <mxCell id="tPd3ghojG1a1pQ2xDTs8-163" value="&lt;font color=&quot;#ffffff&quot;&gt;&lt;span class=&quot;custom-cursor-default-hover&quot; style=&quot;font-size: 16px;&quot;&gt;Nhận thông tin &lt;br&gt;(Màn hình quản &lt;br&gt;lý báo giá)&lt;/span&gt;&lt;/font&gt;" style="rounded=1;fillColor=#23445D;strokeColor=none;strokeWidth=2;fontFamily=Helvetica;html=1;gradientColor=none;" vertex="1" parent="1">
          <mxGeometry x="1450" y="1310" width="170" height="90" as="geometry" />
        </mxCell>
        <mxCell id="tPd3ghojG1a1pQ2xDTs8-166" value="&lt;font style=&quot;font-size: 16px;&quot; color=&quot;#ffffff&quot;&gt;Chấp thuận/ &lt;br&gt;Từ chối&lt;/font&gt;" style="rhombus;whiteSpace=wrap;html=1;fillStyle=auto;fillColor=#23445D;" vertex="1" parent="1">
          <mxGeometry x="1150" y="1107.54" width="170" height="125.18" as="geometry" />
        </mxCell>
        <mxCell id="tPd3ghojG1a1pQ2xDTs8-170" value="" style="edgeStyle=elbowEdgeStyle;elbow=horizontal;strokeWidth=3;strokeColor=#0C343D;fontFamily=Helvetica;html=1;entryX=0;entryY=0.5;entryDx=0;entryDy=0;exitX=1;exitY=0.5;exitDx=0;exitDy=0;" edge="1" parent="1" source="tPd3ghojG1a1pQ2xDTs8-154" target="tPd3ghojG1a1pQ2xDTs8-166">
          <mxGeometry x="763.4489795918366" y="1120" width="131.97278911564624" height="100" as="geometry">
            <mxPoint x="1580" y="1110" as="sourcePoint" />
            <mxPoint x="1680" y="1285" as="targetPoint" />
          </mxGeometry>
        </mxCell>
        <mxCell id="tPd3ghojG1a1pQ2xDTs8-171" value="" style="edgeStyle=elbowEdgeStyle;elbow=horizontal;strokeWidth=3;strokeColor=#0C343D;fontFamily=Helvetica;html=1;exitX=1;exitY=0.5;exitDx=0;exitDy=0;" edge="1" parent="1" source="tPd3ghojG1a1pQ2xDTs8-166">
          <mxGeometry x="503.44897959183663" y="1180" width="131.97278911564624" height="100" as="geometry">
            <mxPoint x="1320" y="1170" as="sourcePoint" />
            <mxPoint x="1240" y="1260" as="targetPoint" />
            <Array as="points">
              <mxPoint x="1350" y="1220" />
              <mxPoint x="1320" y="1220" />
            </Array>
          </mxGeometry>
        </mxCell>
        <mxCell id="tPd3ghojG1a1pQ2xDTs8-172" value="No" style="edgeLabel;html=1;align=center;verticalAlign=middle;resizable=0;points=[];fontSize=20;labelBackgroundColor=#d2dae1;" vertex="1" connectable="0" parent="tPd3ghojG1a1pQ2xDTs8-171">
          <mxGeometry relative="1" as="geometry">
            <mxPoint x="30" y="-40" as="offset" />
          </mxGeometry>
        </mxCell>
        <mxCell id="tPd3ghojG1a1pQ2xDTs8-173" value="Yes" style="edgeLabel;html=1;align=center;verticalAlign=middle;resizable=0;points=[];fontSize=20;labelBackgroundColor=#d2dae1;" vertex="1" connectable="0" parent="1">
          <mxGeometry x="1400" y="1225.5146153846151" as="geometry">
            <mxPoint x="-200" y="34" as="offset" />
          </mxGeometry>
        </mxCell>
      </root>
    </mxGraphModel>
  </diagram>
</mxfile>
